<mxfile host="app.diagrams.net" modified="2022-07-24T14:15:54.218Z" agent="5.0 (Windows NT 10.0; Win64; x64) AppleWebKit/537.36 (KHTML, like Gecko) Chrome/103.0.0.0 Safari/537.36" etag="-zKtLFID6JXCHbw1qe6S" version="20.2.0" type="github">
  <diagram id="C5RBs43oDa-KdzZeNtuy" name="Page-1">
    <mxGraphModel dx="723" dy="368" grid="1" gridSize="10" guides="1" tooltips="1" connect="1" arrows="1" fold="1" page="1" pageScale="1" pageWidth="827" pageHeight="1169" math="0" shadow="0">
      <root>
        <mxCell id="WIyWlLk6GJQsqaUBKTNV-0" />
        <mxCell id="WIyWlLk6GJQsqaUBKTNV-1" parent="WIyWlLk6GJQsqaUBKTNV-0" />
        <mxCell id="WIyWlLk6GJQsqaUBKTNV-2" value="" style="rounded=0;html=1;jettySize=auto;orthogonalLoop=1;fontSize=11;endArrow=block;endFill=0;endSize=8;strokeWidth=1;shadow=0;labelBackgroundColor=none;edgeStyle=orthogonalEdgeStyle;entryX=0.5;entryY=0;entryDx=0;entryDy=0;" parent="WIyWlLk6GJQsqaUBKTNV-1" source="WIyWlLk6GJQsqaUBKTNV-3" target="Y1AL7V8jqFdX6fB9jjWs-2" edge="1">
          <mxGeometry relative="1" as="geometry">
            <mxPoint x="409.9999999999999" y="130" as="targetPoint" />
          </mxGeometry>
        </mxCell>
        <mxCell id="WIyWlLk6GJQsqaUBKTNV-3" value="Start" style="rounded=1;whiteSpace=wrap;html=1;fontSize=12;glass=0;strokeWidth=1;shadow=0;" parent="WIyWlLk6GJQsqaUBKTNV-1" vertex="1">
          <mxGeometry x="350" y="30" width="120" height="40" as="geometry" />
        </mxCell>
        <mxCell id="Y1AL7V8jqFdX6fB9jjWs-5" style="edgeStyle=orthogonalEdgeStyle;rounded=0;orthogonalLoop=1;jettySize=auto;html=1;fontSize=12;entryX=0.5;entryY=0;entryDx=0;entryDy=0;" edge="1" parent="WIyWlLk6GJQsqaUBKTNV-1" source="Y1AL7V8jqFdX6fB9jjWs-2" target="Y1AL7V8jqFdX6fB9jjWs-8">
          <mxGeometry relative="1" as="geometry">
            <mxPoint x="410" y="180" as="targetPoint" />
          </mxGeometry>
        </mxCell>
        <mxCell id="Y1AL7V8jqFdX6fB9jjWs-2" value="Generate a random word" style="rounded=1;whiteSpace=wrap;html=1;fontSize=12;" vertex="1" parent="WIyWlLk6GJQsqaUBKTNV-1">
          <mxGeometry x="350" y="110" width="120" height="40" as="geometry" />
        </mxCell>
        <mxCell id="Y1AL7V8jqFdX6fB9jjWs-10" style="edgeStyle=orthogonalEdgeStyle;rounded=0;orthogonalLoop=1;jettySize=auto;html=1;entryX=0.501;entryY=-0.07;entryDx=0;entryDy=0;entryPerimeter=0;fontSize=12;" edge="1" parent="WIyWlLk6GJQsqaUBKTNV-1" source="Y1AL7V8jqFdX6fB9jjWs-8" target="Y1AL7V8jqFdX6fB9jjWs-9">
          <mxGeometry relative="1" as="geometry" />
        </mxCell>
        <mxCell id="Y1AL7V8jqFdX6fB9jjWs-8" value="Generate as many spaces as there are in the word" style="rounded=1;whiteSpace=wrap;html=1;fontSize=12;" vertex="1" parent="WIyWlLk6GJQsqaUBKTNV-1">
          <mxGeometry x="350" y="190" width="120" height="50" as="geometry" />
        </mxCell>
        <mxCell id="Y1AL7V8jqFdX6fB9jjWs-12" style="edgeStyle=orthogonalEdgeStyle;rounded=0;orthogonalLoop=1;jettySize=auto;html=1;entryX=0.5;entryY=1;entryDx=0;entryDy=0;fontSize=12;" edge="1" parent="WIyWlLk6GJQsqaUBKTNV-1" source="Y1AL7V8jqFdX6fB9jjWs-9" target="Y1AL7V8jqFdX6fB9jjWs-11">
          <mxGeometry relative="1" as="geometry" />
        </mxCell>
        <mxCell id="Y1AL7V8jqFdX6fB9jjWs-9" value="Ask the user to guess a letter in that word" style="rounded=1;whiteSpace=wrap;html=1;fontSize=12;" vertex="1" parent="WIyWlLk6GJQsqaUBKTNV-1">
          <mxGeometry x="350" y="290" width="120" height="50" as="geometry" />
        </mxCell>
        <mxCell id="Y1AL7V8jqFdX6fB9jjWs-13" style="edgeStyle=orthogonalEdgeStyle;rounded=0;orthogonalLoop=1;jettySize=auto;html=1;fontSize=13;entryX=0.5;entryY=0;entryDx=0;entryDy=0;" edge="1" parent="WIyWlLk6GJQsqaUBKTNV-1" source="Y1AL7V8jqFdX6fB9jjWs-11" target="Y1AL7V8jqFdX6fB9jjWs-23">
          <mxGeometry relative="1" as="geometry">
            <mxPoint x="560" y="520" as="targetPoint" />
            <Array as="points">
              <mxPoint x="560" y="435" />
            </Array>
          </mxGeometry>
        </mxCell>
        <mxCell id="Y1AL7V8jqFdX6fB9jjWs-14" style="edgeStyle=orthogonalEdgeStyle;rounded=0;orthogonalLoop=1;jettySize=auto;html=1;fontSize=13;entryX=0.5;entryY=0;entryDx=0;entryDy=0;" edge="1" parent="WIyWlLk6GJQsqaUBKTNV-1" source="Y1AL7V8jqFdX6fB9jjWs-11" target="Y1AL7V8jqFdX6fB9jjWs-17">
          <mxGeometry relative="1" as="geometry">
            <mxPoint x="260" y="550" as="targetPoint" />
          </mxGeometry>
        </mxCell>
        <mxCell id="Y1AL7V8jqFdX6fB9jjWs-11" value="&lt;font style=&quot;font-size: 13px;&quot;&gt;Is the guessed letter in the word?&lt;/font&gt;" style="rhombus;whiteSpace=wrap;html=1;rounded=0;fontSize=12;direction=west;" vertex="1" parent="WIyWlLk6GJQsqaUBKTNV-1">
          <mxGeometry x="329.38" y="390" width="161.25" height="90" as="geometry" />
        </mxCell>
        <mxCell id="Y1AL7V8jqFdX6fB9jjWs-15" value="Yes" style="text;html=1;strokeColor=none;fillColor=none;align=center;verticalAlign=middle;whiteSpace=wrap;rounded=0;fontSize=13;" vertex="1" parent="WIyWlLk6GJQsqaUBKTNV-1">
          <mxGeometry x="200" y="460" width="60" height="30" as="geometry" />
        </mxCell>
        <mxCell id="Y1AL7V8jqFdX6fB9jjWs-16" value="No" style="text;html=1;strokeColor=none;fillColor=none;align=center;verticalAlign=middle;whiteSpace=wrap;rounded=0;fontSize=13;" vertex="1" parent="WIyWlLk6GJQsqaUBKTNV-1">
          <mxGeometry x="544" y="450" width="60" height="30" as="geometry" />
        </mxCell>
        <mxCell id="Y1AL7V8jqFdX6fB9jjWs-18" style="edgeStyle=orthogonalEdgeStyle;rounded=0;orthogonalLoop=1;jettySize=auto;html=1;fontSize=13;" edge="1" parent="WIyWlLk6GJQsqaUBKTNV-1" source="Y1AL7V8jqFdX6fB9jjWs-17">
          <mxGeometry relative="1" as="geometry">
            <mxPoint x="260" y="640" as="targetPoint" />
          </mxGeometry>
        </mxCell>
        <mxCell id="Y1AL7V8jqFdX6fB9jjWs-17" value="Replace the blank with that letter" style="rounded=1;whiteSpace=wrap;html=1;fontSize=13;" vertex="1" parent="WIyWlLk6GJQsqaUBKTNV-1">
          <mxGeometry x="200" y="515" width="120" height="60" as="geometry" />
        </mxCell>
        <mxCell id="Y1AL7V8jqFdX6fB9jjWs-21" style="edgeStyle=orthogonalEdgeStyle;rounded=0;orthogonalLoop=1;jettySize=auto;html=1;fontSize=13;" edge="1" parent="WIyWlLk6GJQsqaUBKTNV-1" source="Y1AL7V8jqFdX6fB9jjWs-20">
          <mxGeometry relative="1" as="geometry">
            <mxPoint x="340" y="840" as="targetPoint" />
            <Array as="points">
              <mxPoint x="260" y="840" />
              <mxPoint x="280" y="840" />
            </Array>
          </mxGeometry>
        </mxCell>
        <mxCell id="Y1AL7V8jqFdX6fB9jjWs-30" style="edgeStyle=orthogonalEdgeStyle;rounded=0;orthogonalLoop=1;jettySize=auto;html=1;fontSize=13;entryX=-0.011;entryY=0.39;entryDx=0;entryDy=0;entryPerimeter=0;" edge="1" parent="WIyWlLk6GJQsqaUBKTNV-1" source="Y1AL7V8jqFdX6fB9jjWs-20" target="Y1AL7V8jqFdX6fB9jjWs-9">
          <mxGeometry relative="1" as="geometry">
            <mxPoint x="340" y="310" as="targetPoint" />
            <Array as="points">
              <mxPoint x="100" y="695" />
              <mxPoint x="100" y="310" />
            </Array>
          </mxGeometry>
        </mxCell>
        <mxCell id="Y1AL7V8jqFdX6fB9jjWs-20" value="Are all the blanks filled" style="rhombus;whiteSpace=wrap;html=1;rounded=0;fontSize=13;" vertex="1" parent="WIyWlLk6GJQsqaUBKTNV-1">
          <mxGeometry x="195" y="640" width="130" height="110" as="geometry" />
        </mxCell>
        <mxCell id="Y1AL7V8jqFdX6fB9jjWs-25" value="" style="edgeStyle=orthogonalEdgeStyle;rounded=0;orthogonalLoop=1;jettySize=auto;html=1;fontSize=13;" edge="1" parent="WIyWlLk6GJQsqaUBKTNV-1" source="Y1AL7V8jqFdX6fB9jjWs-23" target="Y1AL7V8jqFdX6fB9jjWs-24">
          <mxGeometry relative="1" as="geometry" />
        </mxCell>
        <mxCell id="Y1AL7V8jqFdX6fB9jjWs-23" value="Lose a life" style="rounded=1;whiteSpace=wrap;html=1;fontSize=13;" vertex="1" parent="WIyWlLk6GJQsqaUBKTNV-1">
          <mxGeometry x="500" y="515" width="120" height="60" as="geometry" />
        </mxCell>
        <mxCell id="Y1AL7V8jqFdX6fB9jjWs-26" style="edgeStyle=orthogonalEdgeStyle;rounded=0;orthogonalLoop=1;jettySize=auto;html=1;fontSize=13;" edge="1" parent="WIyWlLk6GJQsqaUBKTNV-1" source="Y1AL7V8jqFdX6fB9jjWs-24">
          <mxGeometry relative="1" as="geometry">
            <mxPoint x="460" y="840" as="targetPoint" />
            <Array as="points">
              <mxPoint x="560" y="840" />
            </Array>
          </mxGeometry>
        </mxCell>
        <mxCell id="Y1AL7V8jqFdX6fB9jjWs-32" style="edgeStyle=orthogonalEdgeStyle;rounded=0;orthogonalLoop=1;jettySize=auto;html=1;fontSize=13;entryX=1.017;entryY=0.39;entryDx=0;entryDy=0;entryPerimeter=0;" edge="1" parent="WIyWlLk6GJQsqaUBKTNV-1" source="Y1AL7V8jqFdX6fB9jjWs-24" target="Y1AL7V8jqFdX6fB9jjWs-9">
          <mxGeometry relative="1" as="geometry">
            <mxPoint x="730" y="300" as="targetPoint" />
            <Array as="points">
              <mxPoint x="730" y="695" />
              <mxPoint x="730" y="310" />
            </Array>
          </mxGeometry>
        </mxCell>
        <mxCell id="Y1AL7V8jqFdX6fB9jjWs-24" value="Have they ran out of lives" style="rhombus;whiteSpace=wrap;html=1;fontSize=13;rounded=0;" vertex="1" parent="WIyWlLk6GJQsqaUBKTNV-1">
          <mxGeometry x="495" y="632.5" width="130" height="125" as="geometry" />
        </mxCell>
        <mxCell id="Y1AL7V8jqFdX6fB9jjWs-27" value="Game Over" style="rounded=0;whiteSpace=wrap;html=1;fontSize=13;" vertex="1" parent="WIyWlLk6GJQsqaUBKTNV-1">
          <mxGeometry x="340" y="810" width="120" height="60" as="geometry" />
        </mxCell>
        <mxCell id="Y1AL7V8jqFdX6fB9jjWs-28" value="Yes" style="text;html=1;strokeColor=none;fillColor=none;align=center;verticalAlign=middle;whiteSpace=wrap;rounded=0;fontSize=13;" vertex="1" parent="WIyWlLk6GJQsqaUBKTNV-1">
          <mxGeometry x="200" y="790" width="60" height="30" as="geometry" />
        </mxCell>
        <mxCell id="Y1AL7V8jqFdX6fB9jjWs-29" value="Yes" style="text;html=1;strokeColor=none;fillColor=none;align=center;verticalAlign=middle;whiteSpace=wrap;rounded=0;fontSize=13;" vertex="1" parent="WIyWlLk6GJQsqaUBKTNV-1">
          <mxGeometry x="560" y="790" width="60" height="30" as="geometry" />
        </mxCell>
        <mxCell id="Y1AL7V8jqFdX6fB9jjWs-31" value="NO" style="text;html=1;strokeColor=none;fillColor=none;align=center;verticalAlign=middle;whiteSpace=wrap;rounded=0;fontSize=13;" vertex="1" parent="WIyWlLk6GJQsqaUBKTNV-1">
          <mxGeometry x="40" y="430" width="60" height="40" as="geometry" />
        </mxCell>
        <mxCell id="Y1AL7V8jqFdX6fB9jjWs-33" value="YES" style="text;html=1;strokeColor=none;fillColor=none;align=center;verticalAlign=middle;whiteSpace=wrap;rounded=0;fontSize=13;" vertex="1" parent="WIyWlLk6GJQsqaUBKTNV-1">
          <mxGeometry x="730" y="440" width="60" height="30" as="geometry" />
        </mxCell>
      </root>
    </mxGraphModel>
  </diagram>
</mxfile>
